<?xml version="1.0" standalone="no"?><!DOCTYPE svg PUBLIC "-//W3C//DTD SVG 1.1//EN" "http://www.w3.org/Graphics/SVG/1.1/DTD/svg11.dtd"><svg t="1536913786760" class="icon" style="" viewBox="0 0 1024 1024" version="1.1" xmlns="http://www.w3.org/2000/svg" p-id="2218" xmlns:xlink="http://www.w3.org/1999/xlink" width="200" height="200"><defs><style type="text/css"></style></defs><path d="M512 486.4c-38.4 0-70.4-12.8-96-38.4-51.2-51.2-51.2-134.4 0-185.6 25.6-25.6 57.6-38.4 96-38.4s70.4 12.8 96 38.4c51.2 51.2 51.2 134.4 0 185.6-25.6 25.6-57.6 38.4-96 38.4z m0-204.8c-19.2 0-38.4 6.4-51.2 19.2-32 32-32 76.8 0 108.8 12.8 12.8 32 19.2 51.2 19.2 19.2 0 38.4-6.4 51.2-19.2 32-32 32-76.8 0-108.8-12.8-12.8-32-19.2-51.2-19.2zM704 326.4c-6.4 0-12.8-6.4-12.8-12.8v-12.8-6.4c0-6.4 0-12.8 6.4-19.2 6.4 0 12.8 0 19.2 6.4 0 6.4 0 6.4 6.4 12.8v12.8c0 6.4-6.4 19.2-19.2 19.2zM678.4 262.4c-6.4 0-6.4 0-12.8-6.4-32-44.8-76.8-76.8-134.4-83.2-6.4 0-12.8-6.4-12.8-19.2 0-6.4 6.4-12.8 19.2-12.8 64 6.4 121.6 44.8 153.6 96 6.4 6.4 0 12.8-6.4 19.2 0 6.4-6.4 6.4-6.4 6.4z" fill="#ffffff" p-id="2219"></path><path d="M512 985.6c-25.6 0-70.4-12.8-108.8-83.2-44.8-83.2-204.8-435.2-204.8-550.4 0-172.8 140.8-307.2 307.2-307.2 172.8 0 307.2 140.8 307.2 307.2 0 108.8-160 467.2-198.4 550.4-19.2 51.2-57.6 83.2-102.4 83.2z m0-889.6c-140.8 0-249.6 115.2-249.6 249.6 0 89.6 140.8 409.6 198.4 524.8 19.2 32 38.4 51.2 57.6 51.2 19.2 0 38.4-19.2 57.6-51.2 51.2-102.4 192-435.2 192-524.8-6.4-134.4-115.2-249.6-256-249.6z" fill="#ffffff" p-id="2220"></path></svg>