<svg xmlns="http://www.w3.org/2000/svg" width="54" height="43" viewBox="0 0 54 43"><path fill="none" d="M0 0h54v43H0z"/><path d="M1.53 15.24c0-.55.45-1 1-1s1 .45 1 1-.45 1-1 1-1-.45-1-1zm.28 2.81h1.43V27H1.81v-8.95zm8.5-3.03c2.27 0 3.83 1.59 3.83 3.88 0 2.24-1.6 3.83-3.85 3.83H7.28V27h-1.5V15.02h4.53zM7.28 21.4h2.64c1.7 0 2.69-.91 2.69-2.5 0-1.64-.95-2.55-2.69-2.55H7.28v5.05zm8.85-6.9h1.43v4.96h.13c.45-.99 1.39-1.57 2.76-1.57 1.89 0 3.09 1.21 3.09 3.31V27H22.1v-5.45c0-1.59-.71-2.37-2.07-2.37-1.6 0-2.48 1.01-2.48 2.52V27h-1.43V14.5zm9.2 8.03c0-2.88 1.58-4.63 4.13-4.63s4.13 1.75 4.13 4.63c0 2.87-1.58 4.63-4.13 4.63s-4.13-1.76-4.13-4.63zm6.78 0c0-2.12-.95-3.34-2.65-3.34s-2.65 1.22-2.65 3.34.95 3.35 2.65 3.35 2.65-1.24 2.65-3.35zm3.36-4.48h1.36v1.41h.13c.45-.99 1.32-1.57 2.69-1.57 2.01 0 3.13 1.19 3.13 3.31V27h-1.43v-5.45c0-1.61-.68-2.37-2.11-2.37s-2.35.95-2.35 2.52V27h-1.43v-8.95zm17.91 6.63c-.43 1.54-2.81 2.47-4.77 2.47-2.48 0-4.03-1.79-4.03-4.62 0-2.81 1.58-4.64 4.03-4.64 2.42 0 4.88 1.72 4.88 4.5v.55h-7.43v.07c.07 1.77 1.06 2.89 2.58 2.89 1.15 0 1.93-.42 2.31-1.21h2.43zm-7.31-2.89H51c-.03-1.59-.98-2.63-2.4-2.63-1.43 0-2.43 1.04-2.53 2.63z" fill="#fff"/></svg>